<svg width="64" height="64" viewBox="0 0 256 361" xmlns="http://www.w3.org/2000/svg">
  <path fill="#E44D26" d="M255.555 70.766 232.317 331.18 127.843 360.087 23.666 331.221.445 70.766h255.11Z"></path>
  <path fill="#F16529" d="m128 337.95 84.417-23.403 19.86-222.49H128V337.95Z"></path>
  <path fill="#EBEBEB" d="M128 188.636H85.729l-2.92-32.709H128v-31.937H47.917l.765 8.568 7.85 88.015H128v-31.937Z"></path>
  <path fill="#EBEBEB" d="M128 271.58l-.14.037-35.568-9.604-2.274-25.476H57.957l4.475 50.154 65.421 18.16.147-.041V271.58Z"></path>
  <path fill="#FFFFFF" d="M127.89 188.636v31.937h39.327l-3.708 41.419-35.619 9.614v33.228l65.473-18.143.48-5.395 7.506-84.092.779-8.568H127.89Z"></path>
  <path fill="#FFFFFF" d="M127.89 123.99v31.937h77.145l.64-7.178 1.456-16.191.763-8.568H127.89Z"></path>
</svg>